<svg xmlns="http://www.w3.org/2000/svg" viewBox="0 0 64 64" id="html">
  <path fill="#29b6f6" d="M12 43.957a1.5 1.5 0 0 1-1.5-1.5v-7.434a1.5 1.5 0 0 1 3 0v7.434a1.5 1.5 0 0 1-1.5 1.5zm4.663 0a1.5 1.5 0 0 1-1.5-1.5v-7.434a1.5 1.5 0 1 1 3 0v7.434a1.5 1.5 0 0 1-1.5 1.5z"></path>
  <path fill="#29b6f6" d="M16.663 40.24H12a1.5 1.5 0 0 1 0-3h4.663a1.5 1.5 0 0 1 0 3zm9.78-3.717h-4.746a1.5 1.5 0 0 1 0-3h4.747a1.5 1.5 0 1 1 0 3z"></path>
  <path fill="#29b6f6" d="M24.07 43.957a1.5 1.5 0 0 1-1.5-1.5v-7.434a1.5 1.5 0 0 1 3 0v7.434a1.5 1.5 0 0 1-1.5 1.5zm7.053 0a1.5 1.5 0 0 1-1.5-1.5v-7.434a1.5 1.5 0 0 1 2.693-.909l3.187 4.187a1.5 1.5 0 0 1-2.387 1.818l-.493-.649v2.987a1.5 1.5 0 0 1-1.5 1.5z"></path>
  <path fill="#29b6f6" d="M37.496 43.957a1.5 1.5 0 0 1-1.5-1.5v-2.986l-.493.647a1.5 1.5 0 1 1-2.387-1.816l3.187-4.187a1.5 1.5 0 0 1 2.693.908v7.434a1.5 1.5 0 0 1-1.5 1.5zm8.504 0h-3.903a1.5 1.5 0 0 1-1.5-1.5v-7.434a1.5 1.5 0 1 1 3 0v5.934H46a1.5 1.5 0 0 1 0 3z"></path>
  <path fill="#546e7a" d="M57 57.24a1.5 1.5 0 0 1-1.5-1.5V24.045L42.052 9.76H20.9v13.99a1.5 1.5 0 0 1-3 0V8.26a1.5 1.5 0 0 1 1.5-1.5h23.3a1.5 1.5 0 0 1 1.092.472l14.3 15.19a1.497 1.497 0 0 1 .408 1.028v32.29a1.5 1.5 0 0 1-1.5 1.5zm-7 0H19.4a1.5 1.5 0 0 1-1.5-1.5v-8.01a1.5 1.5 0 0 1 3 0v6.51H50a1.5 1.5 0 0 1 0 3z"></path>
  <path fill="#546e7a" d="M42.7 24.95a1.5 1.5 0 0 1-1.5-1.5v-8.092a1.5 1.5 0 0 1 3 0v8.092a1.5 1.5 0 0 1-1.5 1.5Z"></path>
  <path fill="#546e7a" d="M57 24.95H42.7a1.5 1.5 0 0 1 0-3H57a1.5 1.5 0 0 1 0 3Z"></path>
  <path fill="#29b6f6" d="M51 49.228H7a1.5 1.5 0 0 1-1.5-1.5V29.752a1.5 1.5 0 0 1 1.5-1.5h44a1.5 1.5 0 0 1 1.5 1.5v17.976a1.5 1.5 0 0 1-1.5 1.5Zm-42.5-3h41V31.252h-41Z"></path>
</svg>
